<svg xmlns="http://www.w3.org/2000/svg" xmlns:xlink="http://www.w3.org/1999/xlink" data-name="Layer 1" width="829" height="364.8290710449219"><rect id="backgroundrect" width="100%" height="100%" x="0" y="0" fill="none" stroke="none"/><g class="currentLayer" style=""><title>Layer 1</title><path d="M246.62988,300.3890102636718 c-2.8500900000000002,22.33 -13.33008,42.76 -24.51025,62.44 c-0.36963,0.6700000000000002 -0.7500000000000001,1.33 -1.13965,2 H104.77978999999999 c-2.3501,-0.6100000000000001 -4.66993,-1.28 -6.98,-2 a127.02725,127.02725 0 0 1 -36.68994,-18.05 c-42.75,-30.8 -59.20019,-89 -51.77,-141.15 c4.62012,-32.4 18.83985,-65.48 46.52979,-82.93 c14.62012,-9.23 33.3999,-12.23 50.23,-8.8 c0.44043000000000004,0.08000000000000002 0.8803700000000001,0.18000000000000002 1.3300800000000002,0.27 c14.48,3.26 27.37988,11.36 34.72021,24.41 c13.19971,23.45 5.33985,52.5 -1.1499000000000001,78.6 c-6.47021,26.1 -9.98047,57.34 8.7998,76.59 c-6.20019,-18.25 -0.08007000000000002,-40.02 14.73,-52.36 c11.18994,-9.31 26.77,-12.8 40.98,-9.91 c1.35986,0.29000000000000004 2.70019,0.6200000000000001 4.02,1.02 a44.59846,44.59846 0 0 1 9.16992,3.84 C240.84960999999998,246.7290402636719 249.81982,275.2190302636719 246.62988,300.3890102636718 z" fill="#0bd50b" id="svg_1" class="" fill-opacity="1"/><path d="M177.73000000000002,362.82902026367185 c3.21973,0.7500000000000001 6.44971,1.4100000000000001 9.69971,2 H169.85986000000003 c-2.30029,-0.6200000000000001 -4.59033,-1.28 -6.85986,-2 q-7.48534,-2.34 -14.74023,-5.37 c-19.39991,-8.14 -37.27,-20.36 -50.79,-36.62 a103.37091,103.37091 0 0 1 -16.02,-26.17 a118.85639,118.85639 0 0 1 -8.19971,-33.49 c-2.4502,-23.6 0.04980000000000001,-47.85 4.71973,-71.03 a296.45051,296.45051 0 0 1 23.16015,-69.47 q1.905,-3.97494 3.93994,-7.9 a1.54158,1.54158 0 0 1 1.02979,-0.8800000000000001 a1.77741,1.77741 0 0 1 1.3300800000000002,0.27 a2.1062,2.1062 0 0 1 0.83008,2.7800000000000002 a293.03874,293.03874 0 0 0 -24.58008,66.96 c-5.31983,22.67 -8.33985,46.39 -7.31006,69.7 c0.98,21.78 6.67041,43.2 19.58008,61.00994 c11.79,16.26 28.06982,29.08 46.08008,37.81 A169.131,169.131 0 0 0 177.73000000000002,362.82902026367185 z" fill="#fff" id="svg_2"/><path d="M216.29000000000002,364.82902026367185 h-5.18018 c-0.5800700000000001,-0.6600000000000001 -1.14013,-1.33 -1.6899400000000002,-2 a110.41123,110.41123 0 0 1 -23.24023,-49.66 a107.73445,107.73445 0 0 1 9.29,-67.05 a110.2407,110.2407 0 0 1 10.04,-16.62 c1.35986,0.29000000000000004 2.70019,0.6200000000000001 4.02,1.02 a106.05621,106.05621 0 0 0 -19.77,45.34 A105.09492,105.09492 0 0 0 214.5,362.82902026367185 C215.07959,363.49900026367186 215.67969,364.16904026367183 216.29000000000002,364.82902026367185 z" fill="#fff" id="svg_3"/><path d="M682.92938,347.8221602636719 c0.7521900000000001,5.8933 3.51805,11.28515 6.4687,16.47906 c0.09755000000000003,0.17682 0.19794000000000006,0.35100000000000003 0.30078000000000005,0.52783 h30.66735 c0.6202400000000001,-0.16100000000000003 1.23248,-0.3378200000000001 1.8421500000000002,-0.52783 a33.52491,33.52491 0 0 0 9.68315,-4.76373 c11.2825,-8.12868 15.624,-23.48872 13.663,-37.25207 c-1.21933,-8.55094 -4.97218,-17.28137 -12.28006,-21.88674 a18.43729,18.43729 0 0 0 -13.25661,-2.32248 c-0.11624000000000002,0.021120000000000003 -0.23235,0.04750000000000001 -0.35100000000000003,0.07126000000000002 a13.67963,13.67963 0 0 0 -9.1633,6.44224 c-3.48365,6.18889 -1.40929,13.85571 0.3034800000000001,20.744 c1.70761,6.88828 2.6340000000000003,15.13308 -2.32243,20.21351 a12.643930000000001,12.643930000000001 0 0 0 -14.70288,-16.4342 c-0.35889000000000004,0.07655 -0.7126300000000001,0.16363000000000003 -1.061,0.26921 a11.77068,11.77068 0 0 0 -2.42011,1.01345 C684.4549,333.66031026367193 682.08749,341.17934026367186 682.92938,347.8221602636719 z" fill="#0bd50b" id="svg_4" class="" fill-opacity="1"/><path d="M701.11332,364.3012202636719 c-0.8497400000000002,0.19794000000000006 -1.70219,0.37211000000000005 -2.55993,0.52783 h4.6370000000000005 c0.6070900000000001,-0.16362000000000002 1.21147,-0.3378200000000001 1.81044,-0.52783 q1.97553,-0.61758 3.8902200000000002,-1.41724 a34.90012,34.90012 0 0 0 13.40442,-9.66469 a27.28163,27.28163 0 0 0 4.228,-6.90674 a31.36842,31.36842 0 0 0 2.164,-8.83864 a62.85793,62.85793 0 0 0 -1.24562,-18.7461 a78.23849,78.23849 0 0 0 -6.11239,-18.33442 q-0.50277,-1.04906 -1.03982,-2.08494 a0.40684000000000003,0.40684000000000003 0 0 0 -0.27178,-0.23225 a0.46908000000000005,0.46908000000000005 0 0 0 -0.35100000000000003,0.07126000000000002 a0.5558700000000001,0.5558700000000001 0 0 0 -0.21908000000000002,0.7336900000000002 a77.33813,77.33813 0 0 1 6.48714,17.672 a68.02194,68.02194 0 0 1 1.92926,18.39511 a29.3506,29.3506 0 0 1 -5.16755,16.10164 a32.4858,32.4858 0 0 1 -12.16137,9.97875 A44.6366,44.6366 0 0 1 701.11332,364.3012202636719 z" fill="#fff" id="svg_5"/><path d="M690.93662,364.8290502636719 h1.36714 c0.15309000000000003,-0.17418 0.30090000000000006,-0.35100000000000003 0.44600000000000006,-0.52783 a29.13962,29.13962 0 0 0 6.13352,-13.10618 a28.43312,28.43312 0 0 0 -2.45181,-17.69573 a29.095,29.095 0 0 0 -2.64975,-4.38633 c-0.35889000000000004,0.07655 -0.7126300000000001,0.16363000000000003 -1.061,0.26921 a27.99,27.99 0 0 1 5.21767,11.96606 a27.73652,27.73652 0 0 1 -6.5294,22.953 C691.25608,364.4780402636719 691.0977,364.6548702636719 690.93662,364.8290502636719 z" fill="#fff" id="svg_6"/><path d="M406.50977,212.5082202636719 h-95.981 L309.51123,182.9975202636719 a8.85956,8.85956 0 0 1 9.93091,-9.09863 l55.85449,6.83936 h0.006840000000000002 a31.29061,31.29061 0 0 1 31.2063,31.27 z" fill="#8ae9e9" id="svg_7" class="" fill-opacity="1"/><path d="M363.73082,107.82902026367185 H296.78871 a6.77712,6.77712 0 0 0 -6.77894,6.77894 v66.94211 a6.77713,6.77713 0 0 0 6.77894,6.77895 h66.94211 a6.77714,6.77714 0 0 0 6.779,-6.77895 V114.60796026367188 A6.77713,6.77713 0 0 0 363.73082,107.82902026367185 z" fill="#ccc" id="svg_8"/><path d="M348.65445,157.88578026367185 l-31.60628,6.15492 a7.2107,7.2107 0 0 1 -8.44659,-5.6930700000000005 L306.172,145.87146026367185 a7.21069,7.21069 0 0 1 5.6930700000000005,-8.44658 l31.60628,-6.15491 a7.21069,7.21069 0 0 1 8.44659,5.6930700000000005 l2.42957,12.47616 A7.21068,7.21068 0 0 1 348.65445,157.88578026367185 z" fill="#3f3d56" id="svg_9" class=""/><path d="M342.331,143.14640026367186 l-24.12058,4.69717 a1.6947400000000004,1.6947400000000004 0 0 1 -0.6478900000000002,-3.327 l24.12059,-4.69717 a1.6947400000000004,1.6947400000000004 0 0 1 0.6478800000000001,3.327 z" fill="#fff" id="svg_10"/><path d="M337.64259000000004,150.10241026367186 l-12.47616,2.42957 a1.6947400000000004,1.6947400000000004 0 0 1 -0.6478900000000002,-3.327 l12.47617,-2.42957 a1.6947400000000004,1.6947400000000004 0 1 1 0.6478800000000001,3.327 z" fill="#fff" id="svg_11"/><path d="M370.50977,114.60796026367188 v8.89737 h-80.5 v-8.89737 a6.77712,6.77712 0 0 1 6.77894,-6.77894 h66.94211 A6.77713,6.77713 0 0 1 370.50977,114.60796026367188 z" fill="#b3b3b3" id="svg_12"/><path d="M531.26052,126.29157026367187 a10.74267,10.74267 0 0 0 -15.19331,-6.3648 l-92.09655,-33.04273 l-4.05633,23.00726 l91.8034,25.2454 a10.80091,10.80091 0 0 0 19.54279,-8.84513 z" fill="#ffb8b8" id="svg_13"/><path d="M531.26052,126.29157026367187 a10.74267,10.74267 0 0 0 -15.19331,-6.3648 l-92.09655,-33.04273 l-4.05633,23.00726 l91.8034,25.2454 a10.80091,10.80091 0 0 0 19.54279,-8.84513 z" opacity="0.2" id="svg_14"/><path d="M440.31732,91.07640026367187 l-8.69674,22.72023 a4.81688,4.81688 0 0 1 -6.86086,2.47581 l-21.13624,-11.89627 a13.37737,13.37737 0 0 1 9.63746,-24.95856 l23.6022,5.23464 a4.81686,4.81686 0 0 1 3.45418,6.42415 z" fill="#8ae9e9" id="svg_15" class="" fill-opacity="1"/><path d="M538.50977,147.32902026367185 l-33,15 l4.33259,16.311 a253.73547,253.73547 0 0 1 6.53976,96.64985 v0 l24.12766,5.03915 l20,-51 l-7,-58 z" fill="#8ae9e9" id="svg_16" class="" fill-opacity="1"/><path d="M603.25977,222.82902026367185 c-21.68213,0 -39.35157,15.762 -40.209,35.5 h80.418 C642.61133,238.5909802636719 624.94189,222.82902026367185 603.25977,222.82902026367185 z" fill="#3f3d56" id="svg_17"/><path d="M586.38135,226.2305702636719 c-1.12842,-89.09839 -51.87158,-80.90155 -51.87158,-80.90155 s0.94921,27.73333 1.40527,28.59582 c32.33545,61.17957 -21.03027,132.90381 -88.96,119.70886 q-1.92114,-0.37317000000000006 -3.6914100000000003,-0.7571400000000001 a34.5813,34.5813 0 0 1 -27.16328,-38.76284 c6.69158,-53.73562 -26.59062,-52.7847 -26.59062,-52.7847 H340.84326 l-25.27335,-22.7459 a7.3469,7.3469 0 0 0 -11.80868,2.92095 l-3.25146,8.825 s-48,5 -44,52 h14.83984 a29.96684,29.96684 0 0 0 0.16016000000000002,4 l110.75092,-0.90044 c6.4918700000000005,-0.05278000000000001 12.22225,5.20768 12.249,11.69971 a11.75308,11.75308 0 0 1 -12.14443,11.79594 l-17.85546,-0.59521 c-5.5,24.5 8,41 22.875,51.375 a83.1484,83.1484 0 0 0 47.61766,14.625 h48.50734 c63,0 74,-53 74,-53 C590.50977,267.32902026367185 586.38135,226.2305702636719 586.38135,226.2305702636719 z" fill="#3f3d56" id="svg_18"/><circle cx="600.259765625" cy="307.07904052734375" r="56.25" fill="#3f3d56" id="svg_19"/><circle cx="600.259765625" cy="307.07904052734375" r="13.786760330200195" fill="#fff" id="svg_20"/><circle cx="316.259765625" cy="298.57904052734375" r="64.75" fill="#3f3d56" id="svg_21"/><circle cx="316.259765625" cy="298.57904052734375" r="15.870100021362305" fill="#fff" id="svg_22"/><path d="M505.60352,166.76115026367188 L493.73,134.51163026367186 a13.63843,13.63843 0 0 1 8.08691,-17.51074 l34.04,-12.53125 a23.99761,23.99761 0 0 1 30.812,14.22705 a23.84491,23.84491 0 0 1 1.481,8.29248 a24.1887,24.1887 0 0 1 -8.98779,18.73 a23.81344,23.81344 0 0 1 -6.72022,3.78907 z" fill="#3f3d56" id="svg_23"/><path d="M567.6499,126.9889902636719 a23.54938,23.54938 0 0 1 -8.80029,18.34 a29.98827,29.98827 0 0 1 -19.69971,-41.3 a23.50519,23.50519 0 0 1 28.5,22.96 z" fill="#abecec" id="svg_24" class="" fill-opacity="1"/><ellipse cx="265.009765625" cy="231.8290252685547" rx="14" ry="17" fill="#8ae9e9" id="svg_25" class="" fill-opacity="1"/><polygon points="450.071 292.005 462.331 292.005 468.164 260.208 450.069 260.209 450.071 292.005" fill="#ffb8b8" id="svg_26"/><path d="M446.94363,288.0024602636719 l24.1438,-0.0010000000000000002 h0.0010000000000000002 a15.386050000000001,15.386050000000001 0 0 1 15.38648,15.38623 v0.5 l-39.53052,0.0014600000000000004 z" fill="#2f2e41" id="svg_27"/><path d="M464.30136000000005,278.95452026367184 q-0.21423000000000003,0 -0.43018000000000006,-0.020510000000000004 l-16.96655,-1.23535 a4.49992,4.49992 0 0 1 -3.80932,-6.0293 l22.70654,-51.01464 a3.49812,3.49812 0 0 0 -0.19629000000000005,-2.79883 a3.45084,3.45084 0 0 0 -2.21118,-1.75977 c-10.67725,-2.791 -38.072,-10.22265 -61.78638,-18.918 c-10.15991,-3.72558 -16.55884,-9.10937 -19.0188,-16.00195 c-3.24316,-9.08691 1.5546900000000001,-17.374 1.7605,-17.72168 l0.16089000000000003,-0.27246000000000004 l22.3147,2.02832 l24.19116,2.05762 l53.01343,28.42773 a20.086,20.086 0 0 1 8.8186,25.78418 L468.40756,276.2875202636719 A4.4968900000000005,4.4968900000000005 0 0 1 464.30136000000005,278.95452026367184 z" fill="#2f2e41" id="svg_28"/><circle cx="410.705322265625" cy="39.72019958496094" r="24.5610294342041" fill="#ffb8b8" id="svg_29"/><polygon points="443.071 295.005 455.331 295.005 461.164 263.208 443.069 263.209 443.071 295.005" fill="#ffb8b8" id="svg_30"/><path d="M439.94363,291.0024602636719 l24.1438,-0.0010000000000000002 h0.0010000000000000002 a15.386050000000001,15.386050000000001 0 0 1 15.38648,15.38623 v0.5 l-39.53052,0.0014600000000000004 z" fill="#2f2e41" id="svg_31"/><path d="M457.30136000000005,281.95452026367184 q-0.21423000000000003,0 -0.43018000000000006,-0.020510000000000004 l-16.96655,-1.23535 a4.49992,4.49992 0 0 1 -3.80932,-6.0293 l22.70654,-51.01464 a3.49812,3.49812 0 0 0 -0.19629000000000005,-2.79883 a3.45084,3.45084 0 0 0 -2.21118,-1.75977 c-10.67725,-2.791 -38.072,-10.22265 -61.78638,-18.918 c-10.15991,-3.72558 -16.55884,-9.10937 -19.0188,-16.00195 c-3.24316,-9.08691 1.5546900000000001,-17.374 1.7605,-17.72168 l0.16089000000000003,-0.27246000000000004 l22.3147,2.02832 l24.19116,2.05762 l53.01343,28.42773 a20.086,20.086 0 0 1 8.8186,25.78418 L461.40756,279.2875202636719 A4.4968900000000005,4.4968900000000005 0 0 1 457.30136000000005,281.95452026367184 z" fill="#2f2e41" id="svg_32"/><path d="M418.28012,78.20838026367187 l-26,-9 s-16.322,12.54 -8.481,43.64856 a77.01209,77.01209 0 0 1 -3.40009,48.32025 a49.7787,49.7787 0 0 1 -2.6188900000000004,5.5311900000000005 s29,35 56,9 l-10.5,-50.5 S439.78012,91.70838026367187 418.28012,78.20838026367187 z" fill="#8ae9e9" id="svg_33" class="" fill-opacity="1"/><path d="M413.75473999999997,65.11652026367187 c-3.49562,-5.23231 -6.25435,-12.48756 -2.40565,-17.46591 c3.79907,-4.91416 11.29215,-4.19018 17.11054,-6.36466 c8.104,-3.02867 12.80409,-12.5493 11.33824,-21.07564 s-8.31031,-15.59442 -16.46405,-18.48645 s-17.34839,-1.95148 -25.33312,1.37887 c-9.82931,4.0997 -18.26115,12.03028 -21.79686,22.07625 s-1.6456000000000002,22.10808 5.68929,29.82963 c7.86381,8.27834 20.20556,10.48454 31.62276,10.350670000000001 " fill="#2f2e41" id="svg_34" class=""/><path d="M390.90785000000005,20.483940263671855 c-4.40484,3.58587 -11.12527,1.99318 -15.8536,-1.15387 s-8.56507,-7.62825 -13.681000000000001,-10.09566 c-9.01922,-4.34995 -19.92379,-1.45825 -28.70171,3.36009 s-16.55916,11.475 -25.83124,15.256170000000001 s-21.10393,3.96808 -28.12484,-3.17161 a25.732,25.732 0 0 0 37.7101,30.37145 c10.1594,-6.18839 15.77105,-19.1637 27.16592,-22.57933 c6.3055,-1.8900800000000002 13.07632,-0.36777000000000004 19.44917,1.28106 s13.01783,3.43041 19.44912,2.02674 s12.447,-7.18312 11.6288,-13.71475 z" fill="#2f2e41" id="svg_35" class="selected"/><path d="M530.03838,125.29118026367189 a10.74265,10.74265 0 0 0 -15.86252,-4.44158 L418.7061,99.42244026367189 l-1.1866400000000001,23.33194 l94.21678,13.72558 a10.80091,10.80091 0 0 0 18.30214,-11.18878 z" fill="#ffb8b8" id="svg_36"/><path d="M435.44512999999995,101.56587026367185 l-5.827,23.61966 a4.81688,4.81688 0 0 1 -6.503,3.3034 l-22.442520000000002,-9.19753 a13.37737,13.37737 0 0 1 6.48437,-25.957 l24.06772,2.28255 a4.81687,4.81687 0 0 1 4.22042,5.94888 z" fill="#8ae9e9" id="svg_37" class="" fill-opacity="1"/><circle cx="519.009765625" cy="136.8290252685547" r="7" fill="#abecec" id="svg_38" class="" fill-opacity="1"/><path d="M829,363.82902026367185 a1.00308,1.00308 0 0 1 -1,1 h-827 a1,1 0 0 1 0,-2 h827 A1.00308,1.00308 0 0 1 829,363.82902026367185 z" fill="#3f3d56" id="svg_39"/></g></svg>